<svg width="16" height="16" viewBox="0 0 16 16" fill="none" xmlns="http://www.w3.org/2000/svg">
<path d="M7.99998 15.1667C4.04665 15.1667 0.833313 11.9533 0.833313 8.00001C0.833313 4.04668 4.04665 0.833344 7.99998 0.833344C11.9533 0.833344 15.1666 4.04668 15.1666 8.00001C15.1666 11.9533 11.9533 15.1667 7.99998 15.1667ZM7.99998 1.83334C4.59998 1.83334 1.83331 4.60001 1.83331 8.00001C1.83331 11.4 4.59998 14.1667 7.99998 14.1667C11.4 14.1667 14.1666 11.4 14.1666 8.00001C14.1666 4.60001 11.4 1.83334 7.99998 1.83334Z" fill="#F6F7F9"/>
<path d="M6.59344 5.71996C6.32011 5.71996 6.09344 5.49329 6.09344 5.21996V3.88663C6.09344 3.61329 6.32011 3.38663 6.59344 3.38663C6.86678 3.38663 7.09344 3.61329 7.09344 3.88663V5.21996C7.09344 5.49329 6.87344 5.71996 6.59344 5.71996Z" fill="#F6F7F9"/>
<path d="M9.40656 5.71996C9.13322 5.71996 8.90656 5.49329 8.90656 5.21996V3.88663C8.90656 3.61329 9.13322 3.38663 9.40656 3.38663C9.67989 3.38663 9.90656 3.61329 9.90656 3.88663V5.21996C9.90656 5.49329 9.67989 5.71996 9.40656 5.71996Z" fill="#F6F7F9"/>
<path d="M10.98 7.26001H5.01337C4.74003 7.26001 4.51337 7.03334 4.51337 6.76001C4.51337 6.48668 4.74003 6.26001 5.01337 6.26001H10.98C11.2534 6.26001 11.48 6.48668 11.48 6.76001C11.48 7.03334 11.26 7.26001 10.98 7.26001Z" fill="#F6F7F9"/>
<path d="M8.99998 12.28H6.99998C5.16665 12.28 3.83331 10.9467 3.83331 9.11332V7.11332C3.83331 5.27999 5.16665 3.94666 6.99998 3.94666H8.99998C10.8333 3.94666 12.1666 5.27999 12.1666 7.11332V9.11332C12.1666 10.9467 10.8333 12.28 8.99998 12.28ZM6.99998 4.94666C5.49998 4.94666 4.83331 6.03332 4.83331 7.11332V9.11332C4.83331 10.1933 5.49998 11.28 6.99998 11.28H8.99998C10.5 11.28 11.1666 10.1933 11.1666 9.11332V7.11332C11.1666 6.03332 10.5 4.94666 8.99998 4.94666H6.99998Z" fill="#F6F7F9"/>
</svg>
