<svg width="16" height="16" viewBox="0 0 16 16" fill="none" xmlns="http://www.w3.org/2000/svg">
<path d="M5.33331 3.83334C5.05998 3.83334 4.83331 3.60668 4.83331 3.33334V1.33334C4.83331 1.06001 5.05998 0.833344 5.33331 0.833344C5.60665 0.833344 5.83331 1.06001 5.83331 1.33334V3.33334C5.83331 3.60668 5.60665 3.83334 5.33331 3.83334Z" fill="#D5D9E2"/>
<path d="M10.6667 3.83334C10.3934 3.83334 10.1667 3.60668 10.1667 3.33334V1.33334C10.1667 1.06001 10.3934 0.833344 10.6667 0.833344C10.94 0.833344 11.1667 1.06001 11.1667 1.33334V3.33334C11.1667 3.60668 10.94 3.83334 10.6667 3.83334Z" fill="#D5D9E2"/>
<path d="M10 15.1667H6C2.25333 15.1667 1.5 13.4 1.5 10.5467V6.43334C1.5 3.27334 2.56667 1.98668 5.30667 1.83334H10.6667C10.6733 1.83334 10.6867 1.83334 10.6933 1.83334C13.4333 1.98668 14.5 3.27334 14.5 6.43334V10.5467C14.5 13.4 13.7467 15.1667 10 15.1667ZM5.33333 2.83334C3.46667 2.94001 2.5 3.52668 2.5 6.43334V10.5467C2.5 13.1 2.98667 14.1667 6 14.1667H10C13.0133 14.1667 13.5 13.1 13.5 10.5467V6.43334C13.5 3.53334 12.54 2.94001 10.6533 2.83334H5.33333Z" fill="#D5D9E2"/>
<path d="M13.8334 12.2333H2.16669C1.89335 12.2333 1.66669 12.0067 1.66669 11.7333C1.66669 11.46 1.89335 11.2333 2.16669 11.2333H13.8334C14.1067 11.2333 14.3334 11.46 14.3334 11.7333C14.3334 12.0067 14.1067 12.2333 13.8334 12.2333Z" fill="#D5D9E2"/>
<path d="M7.99998 5.5C7.17998 5.5 6.48665 5.94667 6.48665 6.81333C6.48665 7.22667 6.67998 7.54 6.97331 7.74C6.56665 7.98 6.33331 8.36667 6.33331 8.82C6.33331 9.64667 6.96665 10.16 7.99998 10.16C9.02665 10.16 9.66665 9.64667 9.66665 8.82C9.66665 8.36667 9.43331 7.97333 9.01998 7.74C9.31998 7.53333 9.50665 7.22667 9.50665 6.81333C9.50665 5.94667 8.81998 5.5 7.99998 5.5ZM7.99998 7.39333C7.65331 7.39333 7.39998 7.18667 7.39998 6.86C7.39998 6.52667 7.65331 6.33333 7.99998 6.33333C8.34665 6.33333 8.59998 6.52667 8.59998 6.86C8.59998 7.18667 8.34665 7.39333 7.99998 7.39333ZM7.99998 9.33333C7.55998 9.33333 7.23998 9.11333 7.23998 8.71333C7.23998 8.31333 7.55998 8.1 7.99998 8.1C8.43998 8.1 8.75998 8.32 8.75998 8.71333C8.75998 9.11333 8.43998 9.33333 7.99998 9.33333Z" fill="white"/>
</svg>
