<svg width="18" height="18" viewBox="0 0 18 18" fill="none" xmlns="http://www.w3.org/2000/svg">
<path d="M9 0.5625C10.4055 0.5625 11.432 0.562683 12.2451 0.618164C13.053 0.67331 13.6098 0.78136 14.0811 0.976562C15.4132 1.52843 16.4716 2.5868 17.0234 3.91895C17.2186 4.39021 17.3267 4.94703 17.3818 5.75488C17.4373 6.56804 17.4375 7.59448 17.4375 9C17.4375 10.4055 17.4373 11.432 17.3818 12.2451C17.3267 13.053 17.2186 13.6098 17.0234 14.0811C16.4716 15.4132 15.4132 16.4716 14.0811 17.0234C13.6098 17.2186 13.053 17.3267 12.2451 17.3818C11.432 17.4373 10.4055 17.4375 9 17.4375C7.59448 17.4375 6.56804 17.4373 5.75488 17.3818C4.94703 17.3267 4.39021 17.2186 3.91895 17.0234C2.5868 16.4716 1.52843 15.4132 0.976562 14.0811C0.78136 13.6098 0.67331 13.053 0.618164 12.2451C0.562683 11.432 0.5625 10.4055 0.5625 9C0.5625 7.59448 0.562683 6.56804 0.618164 5.75488C0.67331 4.94703 0.78136 4.39021 0.976562 3.91895C1.52843 2.5868 2.5868 1.52843 3.91895 0.976562C4.39021 0.78136 4.94703 0.67331 5.75488 0.618164C6.56804 0.562683 7.59448 0.5625 9 0.5625Z" stroke="#DFE5F9" stroke-width="1.125"/>
</svg>
