<svg width="167" height="48" viewBox="0 0 167 48" fill="none" xmlns="http://www.w3.org/2000/svg">
<path d="M29.2793 20.8643C34.5036 20.8645 38.5306 25.5447 38.2041 33.0547H27.9727C27.9727 34.6873 28.0817 36.5371 29.6055 36.5371C30.3672 36.5371 30.9116 35.8846 31.0205 34.9053H37.9863C37.0066 39.6941 33.0879 41.9795 29.7139 41.9795C25.1426 41.9793 20.8984 38.7138 20.8984 31.748C20.8986 24.9999 24.5991 20.8643 29.2793 20.8643ZM113.415 20.8643C115.157 20.8643 116.572 21.7352 117.66 23.6943H117.878L117.66 21.2998H125.279V41.4355H117.66L117.986 38.8232H117.769C116.462 40.7824 115.265 41.9795 113.306 41.9795C109.279 41.9791 107.102 36.428 107.102 31.5303C107.102 26.4147 108.735 20.8643 113.415 20.8643ZM7.72754 12.8096C14.6935 12.8096 20.0273 16.9461 20.0273 27.5039C20.0272 35.9934 15.6733 41.4355 9.57812 41.4355H0V12.8096H7.72754ZM51.918 20.8643C55.6186 20.8643 57.0342 24.5648 57.0342 29.0273V41.4355H49.959V31.6396C49.959 30.4424 49.959 28.8096 48.7617 28.8096C47.5646 28.8097 47.5645 30.4424 47.5645 31.6396V41.4355H40.4902V21.2998H47.4561L47.0205 24.5645H47.2383C48.5443 22.3878 49.6326 20.8644 51.918 20.8643ZM66.8301 21.2998V41.4355H59.7549V21.2998H66.8301ZM84.1357 22.3877L79.7822 31.3125L78.2588 35.0137V35.2314L79.6738 35.0137H83.7002V41.4355H68.3535V40.0205L74.1221 27.5039V27.3945L72.4902 27.6123H69.0068V21.2998H84.1357V22.3877ZM96.7617 12.8096C99.4828 12.8096 105.142 14.9864 105.143 20.9727C105.143 23.476 104.707 24.9998 101.66 26.7412C104.381 28.1562 105.796 30.0073 105.796 33.4902C105.796 39.4763 101.769 41.4355 98.1768 41.4355H86.4219V12.8096H96.7617ZM139.319 20.8643C143.02 20.8643 144.436 24.5648 144.436 29.0273V41.4355H137.36V31.6396C137.36 30.4424 137.36 28.8096 136.163 28.8096C134.966 28.8097 134.966 30.4424 134.966 31.6396V41.4355H127.347V21.2998H134.857L134.422 24.5645H134.64C135.946 22.3878 137.034 20.8644 139.319 20.8643ZM153.796 28.8096L154.231 29.7891L157.497 21.2998H165.769L160.544 30.2246L165.878 41.4355H157.279L153.904 31.3125V41.4355H146.612V13.0273H153.796V28.8096ZM115.918 27.3945C114.83 27.3951 114.068 29.7898 114.068 31.3135C114.069 32.8374 114.83 35.4492 116.027 35.4492C117.442 35.449 117.769 32.7279 117.769 31.2041C117.769 29.6803 117.006 27.3945 115.918 27.3945ZM94.041 34.5781H94.9111C96.2173 34.5781 97.959 34.5782 97.959 32.1836C97.9589 29.7892 96 29.7891 94.8027 29.7891H94.041V34.5781ZM7.50977 34.3604H7.94531C10.4486 34.3604 12.408 31.3132 12.4082 27.5039C12.4082 23.4767 10.6664 19.7754 7.94531 19.7754H7.50977V34.3604ZM29.4971 26.1973C28.4086 26.1973 27.8643 27.3946 27.8643 28.8096H31.2383C31.2383 27.5037 30.4764 26.1977 29.4971 26.1973ZM94.041 23.9111H94.6943C95.8915 23.9111 97.0889 23.6933 97.0889 21.7344C97.0887 19.9251 96.0049 19.7828 95.0049 19.7754H94.041V23.9111ZM66.3945 13.2451V19.4492H60.082V13.2451H66.3945Z" fill="white"/>
</svg>
