<svg width="48" height="49" viewBox="0 0 48 49" fill="none" xmlns="http://www.w3.org/2000/svg">
<path d="M24.8431 16.9218C24.267 16.3782 23.5469 16.6953 23.2589 16.9218L22.5647 17.4228L22.1288 17.7374C22.0895 17.7657 22.0347 17.7376 22.0347 17.6892V0.812699C22.0347 0.363858 22.3985 0 22.8474 0H26.9109C27.3597 0 27.7236 0.363857 27.7236 0.812698V19.5723C27.7236 19.598 27.6928 19.6112 27.6741 19.5936L27.3635 19.3004L24.8431 16.9218Z" fill="#024DD1"/>
<path d="M36.4597 8.66817V27.8856C36.4597 27.9916 36.3315 28.0447 36.2566 27.9698L31.2798 22.993C31.1274 22.8406 31.0417 22.6339 31.0417 22.4183V8.66817C31.0417 8.21933 31.4056 7.85547 31.8544 7.85547H35.647C36.0959 7.85547 36.4597 8.21933 36.4597 8.66817Z" fill="#024DD1"/>
<path d="M14.9278 22.8921L13.7087 21.673C13.4738 21.4381 13.3564 21.3207 13.2945 21.1714C13.2327 21.022 13.2327 20.8559 13.2327 20.5237V9.34512C13.2327 8.5789 13.2327 8.19579 13.4707 7.95776C13.7087 7.71973 14.0918 7.71973 14.8581 7.71973H17.2962C18.0624 7.71973 18.4455 7.71973 18.6835 7.95776C18.9216 8.19579 18.9216 8.5789 18.9216 9.34513V20.5237C18.9216 20.8559 18.9216 21.022 18.8597 21.1714C18.7978 21.3207 18.6804 21.4381 18.4455 21.673L18.4455 21.673L17.2264 22.8921C16.6846 23.4339 16.4137 23.7048 16.0771 23.7048C15.7405 23.7048 15.4696 23.4339 14.9278 22.8921Z" fill="white"/>
<path d="M7.20553 17.1559L5.27244 18.959C4.88206 19.3231 4.68688 19.5052 4.52398 19.4344C4.36108 19.3636 4.36108 19.0967 4.36108 18.5628V14.2557C4.36108 14.0003 4.36108 13.8726 4.44043 13.7932C4.51977 13.7139 4.64748 13.7139 4.90288 13.7139H9.50817C9.76358 13.7139 9.89128 13.7139 9.97063 13.7932C10.05 13.8726 10.05 14.0003 10.05 14.2557V17.1544C10.05 17.6761 10.05 17.937 9.88281 18.0062C9.71565 18.0755 9.5336 17.8937 9.16949 17.53C9.05129 17.4119 8.92744 17.2864 8.80119 17.1559C8.24618 16.5822 7.50616 16.9169 7.20553 17.1559Z" fill="#024DD1"/>
<rect x="2.66675" y="27.0898" width="7.36075" height="7.36075" rx="1.0836" transform="rotate(-45 2.66675 27.0898)" fill="white"/>
<rect x="18.9202" y="27.1475" width="7.36075" height="7.36075" rx="1.0836" transform="rotate(-45 18.9202 27.1475)" fill="white"/>
<rect x="10.7952" y="35.1387" width="7.36075" height="7.36075" rx="1.0836" transform="rotate(-45 10.7952 35.1387)" fill="white"/>
<rect x="18.9202" y="43.4014" width="7.36075" height="7.36075" rx="1.0836" transform="rotate(-45 18.9202 43.4014)" fill="white"/>
<rect x="27.3193" y="35.1387" width="7.36075" height="7.36075" rx="1.0836" transform="rotate(-45 27.3193 35.1387)" fill="white"/>
<path d="M40.5939 11.3096H44.522C44.9708 11.3096 45.3347 11.6734 45.3347 12.1223V27.699L41.1686 31.8651C40.6566 32.377 39.7812 32.0144 39.7812 31.2904V12.1223C39.7812 11.6734 40.1451 11.3096 40.5939 11.3096Z" fill="white"/>
</svg>
