<svg width="48" height="48" viewBox="0 0 48 48" fill="none" xmlns="http://www.w3.org/2000/svg">
<path d="M6.25641 20.7891C6.69179 18.1769 7.7802 15.6735 9.19517 13.4966L7.236 11.5374C5.92988 10.2313 5.92988 8.16328 7.236 6.85716C8.54212 5.55104 10.6101 5.55104 11.8074 6.85716L13.6578 8.81633C15.8346 7.29252 18.2292 6.2041 20.9503 5.76873V3.26531C20.9503 1.41497 22.3653 0 24.2156 0C26.0659 0 27.4809 1.52381 27.4809 3.26531V5.76873C30.202 6.2041 32.7054 7.29253 34.8822 8.92518L36.6237 7.18368C37.9299 5.87756 39.9979 5.87756 41.1952 7.18368C42.5013 8.4898 42.5013 10.5578 41.1952 11.864L39.4537 13.6054C40.8687 15.7823 41.9571 18.1769 42.3925 20.898H44.4605C46.3108 20.898 47.7258 22.3129 47.7258 24.1633C47.7258 26.0136 46.3108 27.4286 44.4605 27.4286H42.5013C42.0659 30.1497 40.9775 32.6531 39.4537 34.8299L40.9775 36.3538C42.2836 37.6599 42.2836 39.7279 40.9775 41.034C39.6713 42.3401 37.6033 42.3401 36.406 41.034L34.8822 39.4014C32.8142 40.8163 30.3108 41.9048 27.6986 42.3402V44.7347C27.6986 46.585 26.2836 48 24.4333 48C22.5829 48 21.168 46.4762 21.168 44.7347V42.3402C18.5557 41.9048 16.1612 40.8163 14.0931 39.4014L12.3516 41.1429C11.0455 42.449 8.97749 42.449 7.78022 41.1429C6.47409 39.8367 6.47409 37.7687 7.78022 36.4626L9.52172 34.7211C7.99791 32.5442 6.90945 30.0408 6.47408 27.3197H6.25641H3.53533C1.68499 27.3197 0.27002 25.9048 0.27002 24.0544C0.27002 22.2041 1.68499 20.7891 3.53533 20.7891H6.25641Z" fill="white"/>
<path fill-rule="evenodd" clip-rule="evenodd" d="M13.549 22.7484C13.7667 20.6804 14.5286 18.83 15.7259 17.3062L19.6442 21.2246C19.3177 21.66 19.1 22.2042 18.9912 22.7484H13.549ZM17.5762 15.4559C19.1 14.2586 20.8415 13.4967 22.8007 13.1702V18.7212C22.3653 18.83 21.93 19.0477 21.4946 19.3743L17.5762 15.4559ZM25.4129 13.0613C27.5898 13.279 29.6578 14.1498 31.1817 15.4559L27.2633 19.3743C26.7191 18.9389 26.066 18.7212 25.3041 18.6123L25.4129 13.0613ZM33.032 17.4151C34.2293 18.9389 34.9912 20.7892 35.2088 22.8572H29.7667C29.6578 22.313 29.4401 21.8776 29.2225 21.3334L33.032 17.4151ZM35.2088 25.4695C34.9912 27.5375 34.1204 29.3879 32.9232 30.9117L29.0048 26.9933C29.3313 26.5579 29.549 26.0137 29.6579 25.4695H35.2088ZM31.0728 32.6531C29.4402 33.8504 27.5898 34.7212 25.4129 34.9389V29.3878C26.066 29.279 26.6102 29.0613 27.1544 28.7348L31.0728 32.6531ZM22.8007 34.83C20.9504 34.6123 19.2089 33.8504 17.7939 32.6531L21.7123 28.7348C22.0388 28.9525 22.4742 29.0613 22.8007 29.1702V34.83ZM15.9436 30.9117C14.7463 29.3879 13.8755 27.4287 13.6578 25.3607H19.2089C19.3177 25.9049 19.6442 26.4491 19.9708 26.9933L15.9436 30.9117ZM7.7803 25.9049H3.86193C2.66465 25.9049 1.68506 25.0341 1.68506 24.0545C1.68506 23.0749 2.66465 22.2042 3.86193 22.2042H7.7803C8.10683 18.9389 9.41293 16.0001 11.2633 13.6055L8.65104 10.9933C7.78029 10.1225 7.67147 8.81642 8.43337 8.16335C9.19527 7.40145 10.3925 7.61915 11.2633 8.38105L13.8755 10.9933C16.2701 9.03411 19.3177 7.72799 22.583 7.29262V3.7008C22.583 2.50352 23.3449 1.52393 24.4333 1.52393C25.5218 1.52393 26.2837 2.50352 26.2837 3.7008V7.29262C29.549 7.61915 32.5966 8.92527 35.1 10.9933L37.4946 8.4899C38.3653 7.61916 39.5626 7.5103 40.3245 8.2722C41.0864 9.03411 40.8687 10.2314 40.1068 11.1021L37.6034 13.6055C39.5626 16.0001 40.7599 19.0477 41.0864 22.2042H44.2428C45.4401 22.2042 46.4197 23.0749 46.4197 24.0545C46.4197 25.0341 45.4401 25.9049 44.2428 25.9049H40.9775C40.651 29.1702 39.3449 32.2178 37.3857 34.6124L39.7803 37.0069C40.651 37.8776 40.7599 39.1838 39.998 39.8368C39.2361 40.5987 38.0388 40.3811 37.168 39.6192L34.7735 37.2246C32.3789 39.1838 29.4402 40.3811 26.1749 40.7076V44.2994C26.1749 45.4967 25.4129 46.4763 24.3245 46.4763C23.2361 46.4763 22.4742 45.4967 22.4742 44.2994V40.7076C19.3177 40.3811 16.3789 39.0749 13.9844 37.2246L11.3721 39.8368C10.5014 40.7076 9.30409 40.8164 8.54219 40.0545C7.78028 39.2926 7.99798 38.0953 8.75989 37.2246L11.3721 34.6124C9.52179 32.2178 8.21568 29.1702 7.7803 25.9049Z" fill="#CE152D"/>
</svg>
