<svg width="40" height="40" viewBox="0 0 40 40" fill="none" xmlns="http://www.w3.org/2000/svg">
<path fill-rule="evenodd" clip-rule="evenodd" d="M27.0459 28.8758C27.0641 28.893 27.075 28.9022 27.075 28.9022L37.8114 39.6393C38.1216 39.8759 38.4397 40 38.7577 40C39.0757 40 39.3929 39.8789 39.635 39.6364C40.1229 39.1545 40.1229 38.3633 39.6342 37.8823L28.8423 27.0898C28.8423 27.0899 28.8422 27.0899 28.8422 27.0899C28.2882 27.7332 27.6871 28.3299 27.0459 28.8758Z" fill="white"/>
<path opacity="0.5" fill-rule="evenodd" clip-rule="evenodd" d="M26.1543 3.25004C31.412 7.12752 34.0447 13.9314 32.249 20.6329C30.4125 27.487 24.4998 32.1608 17.8166 32.7432C17.3352 32.8035 16.8456 32.8349 16.3468 32.8349C7.34881 32.8349 0 25.4834 0 16.4175C0 15.4623 0.0808116 14.5262 0.236013 13.6157C0.302436 13.1225 0.400455 12.6289 0.532898 12.1346C1.24666 9.47082 2.58734 7.1354 4.35571 5.24484C7.335 2.01874 11.5953 0 16.3468 0C20.0234 0 23.4179 1.20845 26.1543 3.25004ZM16.4167 29.7881C8.97948 29.7881 3.04674 23.7871 3.04674 16.4175C3.04674 12.1141 5.06961 8.27751 8.23368 5.82983C11.4203 3.39011 15.6634 2.41952 19.8333 3.53683C26.9518 5.44424 31.2128 12.728 29.2879 19.9118C28.7494 21.9214 27.7931 23.6971 26.5376 25.1704C24.0835 28.0058 20.4557 29.7881 16.4167 29.7881Z" fill="white"/>
<path fill-rule="evenodd" clip-rule="evenodd" d="M17.003 19.7781V18.6291L20.7695 16.7448L20.779 16.7395C22.1871 15.9564 23.0636 14.4714 23.0636 12.8589C23.0636 10.4102 21.0704 8.41699 18.6217 8.41699H14.8843C12.4356 8.41699 10.4424 10.4102 10.4424 12.8589V13.465C10.4424 14.1614 11.0061 14.7251 11.7025 14.7251C12.3993 14.7251 12.9626 14.1582 12.9626 13.465V12.8589C12.9626 11.7975 13.8229 10.9372 14.8843 10.9372H18.6248C19.6829 10.9372 20.5434 11.7973 20.5434 12.8589C20.5434 13.557 20.1641 14.1975 19.5995 14.5141L15.7836 16.4195L15.7783 16.4225C14.9806 16.8703 14.4828 17.7108 14.4828 18.6291V19.7781C14.4828 20.4717 15.0493 21.0382 15.7429 21.0382C16.4365 21.0382 17.003 20.4717 17.003 19.7781ZM15.7429 22.0534C14.7683 22.0534 13.9777 22.8439 13.9777 23.8185C13.9777 24.7931 14.7683 25.5837 15.7429 25.5837C16.7174 25.5837 17.508 24.7931 17.508 23.8185C17.508 22.8443 16.7209 22.0534 15.7429 22.0534Z" fill="white"/>
</svg>
