<svg width="20" height="20" viewBox="0 0 20 20" fill="none" xmlns="http://www.w3.org/2000/svg">
<path fill-rule="evenodd" clip-rule="evenodd" d="M17.4979 10C17.4979 14.1421 14.1405 17.5 9.99897 17.5C5.8574 17.5 2.5 14.1421 2.5 10C2.5 5.85786 5.8574 2.5 9.99897 2.5C14.1405 2.5 17.4979 5.85786 17.4979 10ZM9.0616 10.625C9.0616 11.1428 9.48127 11.5625 9.99897 11.5625C10.5167 11.5625 10.9363 11.1428 10.9363 10.625V6.25C10.9363 5.73223 10.5167 5.3125 9.99897 5.3125C9.48127 5.3125 9.0616 5.73223 9.0616 6.25V10.625ZM9.0616 13.75C9.0616 14.2678 9.48127 14.6875 9.99897 14.6875C10.5167 14.6875 10.9363 14.2678 10.9363 13.75C10.9363 13.2322 10.5167 12.8125 9.99897 12.8125C9.48127 12.8125 9.0616 13.2322 9.0616 13.75Z" fill="#F53C2B"/>
</svg>
