<svg width="24" height="24" viewBox="0 0 24 24" fill="none" xmlns="http://www.w3.org/2000/svg">
<path d="M14.9545 14.2955C15.3938 14.7348 16.1062 14.7348 16.5455 14.2955C16.9848 13.8562 16.9848 13.1438 16.5455 12.7045L12.7955 8.9545C12.3562 8.51516 11.6438 8.51516 11.2045 8.9545L7.4545 12.7045C7.01516 13.1438 7.01516 13.8562 7.4545 14.2955C7.89385 14.7348 8.60615 14.7348 9.0455 14.2955L12 11.341L14.9545 14.2955Z" fill="#D5D9E2"/>
<path fill-rule="evenodd" clip-rule="evenodd" d="M1.5 12C1.5 6.20101 6.20101 1.5 12 1.5C17.799 1.5 22.5 6.20101 22.5 12C22.5 17.799 17.799 22.5 12 22.5C6.20101 22.5 1.5 17.799 1.5 12ZM3.75 12C3.75 7.44365 7.44365 3.75 12 3.75C16.5563 3.75 20.25 7.44365 20.25 12C20.25 16.5563 16.5563 20.25 12 20.25C7.44365 20.25 3.75 16.5563 3.75 12Z" fill="#D5D9E2"/>
</svg>
