<svg width="20" height="20" viewBox="0 0 20 20" fill="none" xmlns="http://www.w3.org/2000/svg">
<path d="M12.5013 18.9596H7.5013C2.9763 18.9596 1.04297 17.0263 1.04297 12.5013V7.5013C1.04297 2.9763 2.9763 1.04297 7.5013 1.04297H12.5013C17.0263 1.04297 18.9596 2.9763 18.9596 7.5013V12.5013C18.9596 17.0263 17.0263 18.9596 12.5013 18.9596ZM7.5013 2.29297C3.65964 2.29297 2.29297 3.65964 2.29297 7.5013V12.5013C2.29297 16.343 3.65964 17.7096 7.5013 17.7096H12.5013C16.343 17.7096 17.7096 16.343 17.7096 12.5013V7.5013C17.7096 3.65964 16.343 2.29297 12.5013 2.29297H7.5013Z" fill="#FBFBFD"/>
<path d="M10.0013 10.8346C9.53464 10.8346 9.16797 10.4596 9.16797 10.0013C9.16797 9.54297 9.54297 9.16797 10.0013 9.16797C10.4596 9.16797 10.8346 9.54297 10.8346 10.0013C10.8346 10.4596 10.468 10.8346 10.0013 10.8346Z" fill="#FBFBFD"/>
</svg>
