<svg width="10" height="12" viewBox="0 0 10 12" fill="none" xmlns="http://www.w3.org/2000/svg">
<path d="M0.5 0.25C0.5 0.111929 0.388071 0 0.25 0C0.111929 0 0 0.111929 0 0.25H0.25H0.5ZM9.42678 9.42678C9.52441 9.32915 9.52441 9.17085 9.42678 9.07322L7.83579 7.48223C7.73816 7.3846 7.57986 7.3846 7.48223 7.48223C7.3846 7.57986 7.3846 7.73816 7.48223 7.83579L8.89645 9.25L7.48223 10.6642C7.3846 10.7618 7.3846 10.9201 7.48223 11.0178C7.57986 11.1154 7.73816 11.1154 7.83579 11.0178L9.42678 9.42678ZM0.25 0.25H0V7.25H0.25H0.5V0.25H0.25ZM2.25 9.25V9.5H9.25V9.25V9H2.25V9.25ZM0.25 7.25H0C0 8.49264 1.00736 9.5 2.25 9.5V9.25V9C1.2835 9 0.5 8.2165 0.5 7.25H0.25Z" fill="white"/>
</svg>
